<svg width="149" height="152" viewBox="0 0 149 152" fill="none" xmlns="http://www.w3.org/2000/svg">
<circle cx="74" cy="74" r="74" fill="#3845D7"/>
<g filter="url(#filter0_dd_2_79)">
<circle cx="74.2061" cy="73.7939" r="70.0836" fill="#008000"/>
</g>
<g filter="url(#filter1_dd_2_79)">
<circle cx="73.5878" cy="73.5878" r="66.1671" fill="#008B8B"/>
</g>
<g filter="url(#filter2_dd_2_79)">
<circle cx="73.7939" cy="74.2061" r="62.2507" fill="black"/>
</g>
<path d="M89.3621 49.4708C89.3621 53.7667 86.202 56.9527 82.6543 56.9527C79.1066 56.9527 75.9465 53.7667 75.9465 49.4708C75.9465 45.1749 79.1066 41.9889 82.6543 41.9889C86.202 41.9889 89.3621 45.1749 89.3621 49.4708Z" fill="#008B8B" stroke="black" stroke-width="4"/>
<path d="M42.5226 107.187H27V52.3566L42.5226 39.9889L57.6667 39.9889L73.1893 39.9889V93.9945L57.6667 107.187H42.5226Z" fill="#3845D7"/>
<path d="M42.5226 107.187H27L27 52.3566C42.5226 39.9889 27 52.3566 42.5226 39.9889C57.6667 39.9889 55.5844 39.9889 57.6667 39.9889M42.5226 107.187V58.9527M42.5226 107.187C57.6667 107.187 44.7942 107.187 57.6667 107.187C73.1893 93.9945 57.6667 107.187 73.1893 93.9945V39.9889L57.6667 39.9889M57.6667 39.9889V87.3984" stroke="black" stroke-width="4"/>
<path d="M88.9836 99.6543L81.3619 106.011H75.5679V74.8053L82.9382 67.1365H88.9836V99.6543Z" fill="#008B8B" stroke="black" stroke-width="4"/>
<path d="M119 39.9889H103.919L73.9465 74L103.919 108.011H119L89.7812 74L119 39.9889Z" fill="#008000" stroke="black" stroke-width="4"/>
<defs>
<filter id="filter0_dd_2_79" x="0.122559" y="3.71033" width="148.167" height="148.167" filterUnits="userSpaceOnUse" color-interpolation-filters="sRGB">
<feFlood flood-opacity="0" result="BackgroundImageFix"/>
<feColorMatrix in="SourceAlpha" type="matrix" values="0 0 0 0 0 0 0 0 0 0 0 0 0 0 0 0 0 0 127 0" result="hardAlpha"/>
<feOffset dy="4"/>
<feGaussianBlur stdDeviation="2"/>
<feComposite in2="hardAlpha" operator="out"/>
<feColorMatrix type="matrix" values="0 0 0 0 0 0 0 0 0 0 0 0 0 0 0 0 0 0 0.25 0"/>
<feBlend mode="normal" in2="BackgroundImageFix" result="effect1_dropShadow_2_79"/>
<feColorMatrix in="SourceAlpha" type="matrix" values="0 0 0 0 0 0 0 0 0 0 0 0 0 0 0 0 0 0 127 0" result="hardAlpha"/>
<feOffset dy="4"/>
<feGaussianBlur stdDeviation="2"/>
<feComposite in2="hardAlpha" operator="out"/>
<feColorMatrix type="matrix" values="0 0 0 0 0 0 0 0 0 0 0 0 0 0 0 0 0 0 0.25 0"/>
<feBlend mode="normal" in2="effect1_dropShadow_2_79" result="effect2_dropShadow_2_79"/>
<feBlend mode="normal" in="SourceGraphic" in2="effect2_dropShadow_2_79" result="shape"/>
</filter>
<filter id="filter1_dd_2_79" x="3.42065" y="7.42065" width="140.334" height="140.334" filterUnits="userSpaceOnUse" color-interpolation-filters="sRGB">
<feFlood flood-opacity="0" result="BackgroundImageFix"/>
<feColorMatrix in="SourceAlpha" type="matrix" values="0 0 0 0 0 0 0 0 0 0 0 0 0 0 0 0 0 0 127 0" result="hardAlpha"/>
<feOffset dy="4"/>
<feGaussianBlur stdDeviation="2"/>
<feComposite in2="hardAlpha" operator="out"/>
<feColorMatrix type="matrix" values="0 0 0 0 0 0 0 0 0 0 0 0 0 0 0 0 0 0 0.25 0"/>
<feBlend mode="normal" in2="BackgroundImageFix" result="effect1_dropShadow_2_79"/>
<feColorMatrix in="SourceAlpha" type="matrix" values="0 0 0 0 0 0 0 0 0 0 0 0 0 0 0 0 0 0 127 0" result="hardAlpha"/>
<feOffset dy="4"/>
<feGaussianBlur stdDeviation="2"/>
<feComposite in2="hardAlpha" operator="out"/>
<feColorMatrix type="matrix" values="0 0 0 0 0 0 0 0 0 0 0 0 0 0 0 0 0 0 0.25 0"/>
<feBlend mode="normal" in2="effect1_dropShadow_2_79" result="effect2_dropShadow_2_79"/>
<feBlend mode="normal" in="SourceGraphic" in2="effect2_dropShadow_2_79" result="shape"/>
</filter>
<filter id="filter2_dd_2_79" x="7.54321" y="11.9554" width="132.501" height="132.501" filterUnits="userSpaceOnUse" color-interpolation-filters="sRGB">
<feFlood flood-opacity="0" result="BackgroundImageFix"/>
<feColorMatrix in="SourceAlpha" type="matrix" values="0 0 0 0 0 0 0 0 0 0 0 0 0 0 0 0 0 0 127 0" result="hardAlpha"/>
<feOffset dy="4"/>
<feGaussianBlur stdDeviation="2"/>
<feComposite in2="hardAlpha" operator="out"/>
<feColorMatrix type="matrix" values="0 0 0 0 0 0 0 0 0 0 0 0 0 0 0 0 0 0 0.25 0"/>
<feBlend mode="normal" in2="BackgroundImageFix" result="effect1_dropShadow_2_79"/>
<feColorMatrix in="SourceAlpha" type="matrix" values="0 0 0 0 0 0 0 0 0 0 0 0 0 0 0 0 0 0 127 0" result="hardAlpha"/>
<feOffset dy="4"/>
<feGaussianBlur stdDeviation="2"/>
<feComposite in2="hardAlpha" operator="out"/>
<feColorMatrix type="matrix" values="0 0 0 0 0 0 0 0 0 0 0 0 0 0 0 0 0 0 0.25 0"/>
<feBlend mode="normal" in2="effect1_dropShadow_2_79" result="effect2_dropShadow_2_79"/>
<feBlend mode="normal" in="SourceGraphic" in2="effect2_dropShadow_2_79" result="shape"/>
</filter>
</defs>
</svg>
