<svg width="149" height="152" viewBox="0 0 149 152" fill="none" xmlns="http://www.w3.org/2000/svg">
<circle cx="74" cy="74" r="74" fill="#E00000"/>
<g filter="url(#filter0_dd_2_67)">
<circle cx="74.2061" cy="73.7939" r="70.0836" fill="#E04B00"/>
</g>
<g filter="url(#filter1_dd_2_67)">
<circle cx="73.5878" cy="73.5878" r="66.1671" fill="#E09600"/>
</g>
<g filter="url(#filter2_dd_2_67)">
<circle cx="73.7939" cy="74.2061" r="62.2507" fill="white"/>
</g>
<path d="M88.7613 49.4708C88.7613 53.7248 85.5553 56.9527 81.8642 56.9527C78.173 56.9527 74.967 53.7248 74.967 49.4708C74.967 45.2168 78.173 41.9889 81.8642 41.9889C85.5553 41.9889 88.7613 45.2168 88.7613 49.4708Z" fill="#E09600" stroke="white" stroke-width="4"/>
<path d="M40.8601 107.187H25V52.3566L40.8601 39.9889L56.3333 39.9889L72.1934 39.9889V93.9945L56.3333 107.187H40.8601Z" fill="#E00000"/>
<path d="M40.8601 107.187H25L25 52.3566C40.8601 39.9889 25 52.3566 40.8601 39.9889C56.3333 39.9889 54.2057 39.9889 56.3333 39.9889M40.8601 107.187V58.9527M40.8601 107.187C56.3333 107.187 43.1811 107.187 56.3333 107.187C72.1934 93.9945 56.3333 107.187 72.1934 93.9945V39.9889L56.3333 39.9889M56.3333 39.9889V87.3984" stroke="white" stroke-width="4"/>
<path d="M88.3744 99.6414L80.5712 106.011H74.5802V74.8178L82.123 67.1365H88.3744V99.6414Z" fill="#E09600" stroke="white" stroke-width="4"/>
<path d="M119 39.9889H103.591L72.967 74L103.591 108.011H119L89.146 74L119 39.9889Z" fill="#E04B00" stroke="white" stroke-width="4"/>
<defs>
<filter id="filter0_dd_2_67" x="0.122559" y="3.71033" width="148.167" height="148.167" filterUnits="userSpaceOnUse" color-interpolation-filters="sRGB">
<feFlood flood-opacity="0" result="BackgroundImageFix"/>
<feColorMatrix in="SourceAlpha" type="matrix" values="0 0 0 0 0 0 0 0 0 0 0 0 0 0 0 0 0 0 127 0" result="hardAlpha"/>
<feOffset dy="4"/>
<feGaussianBlur stdDeviation="2"/>
<feComposite in2="hardAlpha" operator="out"/>
<feColorMatrix type="matrix" values="0 0 0 0 0 0 0 0 0 0 0 0 0 0 0 0 0 0 0.25 0"/>
<feBlend mode="normal" in2="BackgroundImageFix" result="effect1_dropShadow_2_67"/>
<feColorMatrix in="SourceAlpha" type="matrix" values="0 0 0 0 0 0 0 0 0 0 0 0 0 0 0 0 0 0 127 0" result="hardAlpha"/>
<feOffset dy="4"/>
<feGaussianBlur stdDeviation="2"/>
<feComposite in2="hardAlpha" operator="out"/>
<feColorMatrix type="matrix" values="0 0 0 0 0 0 0 0 0 0 0 0 0 0 0 0 0 0 0.25 0"/>
<feBlend mode="normal" in2="effect1_dropShadow_2_67" result="effect2_dropShadow_2_67"/>
<feBlend mode="normal" in="SourceGraphic" in2="effect2_dropShadow_2_67" result="shape"/>
</filter>
<filter id="filter1_dd_2_67" x="3.42065" y="7.42065" width="140.334" height="140.334" filterUnits="userSpaceOnUse" color-interpolation-filters="sRGB">
<feFlood flood-opacity="0" result="BackgroundImageFix"/>
<feColorMatrix in="SourceAlpha" type="matrix" values="0 0 0 0 0 0 0 0 0 0 0 0 0 0 0 0 0 0 127 0" result="hardAlpha"/>
<feOffset dy="4"/>
<feGaussianBlur stdDeviation="2"/>
<feComposite in2="hardAlpha" operator="out"/>
<feColorMatrix type="matrix" values="0 0 0 0 0 0 0 0 0 0 0 0 0 0 0 0 0 0 0.25 0"/>
<feBlend mode="normal" in2="BackgroundImageFix" result="effect1_dropShadow_2_67"/>
<feColorMatrix in="SourceAlpha" type="matrix" values="0 0 0 0 0 0 0 0 0 0 0 0 0 0 0 0 0 0 127 0" result="hardAlpha"/>
<feOffset dy="4"/>
<feGaussianBlur stdDeviation="2"/>
<feComposite in2="hardAlpha" operator="out"/>
<feColorMatrix type="matrix" values="0 0 0 0 0 0 0 0 0 0 0 0 0 0 0 0 0 0 0.25 0"/>
<feBlend mode="normal" in2="effect1_dropShadow_2_67" result="effect2_dropShadow_2_67"/>
<feBlend mode="normal" in="SourceGraphic" in2="effect2_dropShadow_2_67" result="shape"/>
</filter>
<filter id="filter2_dd_2_67" x="7.54321" y="11.9554" width="132.501" height="132.501" filterUnits="userSpaceOnUse" color-interpolation-filters="sRGB">
<feFlood flood-opacity="0" result="BackgroundImageFix"/>
<feColorMatrix in="SourceAlpha" type="matrix" values="0 0 0 0 0 0 0 0 0 0 0 0 0 0 0 0 0 0 127 0" result="hardAlpha"/>
<feOffset dy="4"/>
<feGaussianBlur stdDeviation="2"/>
<feComposite in2="hardAlpha" operator="out"/>
<feColorMatrix type="matrix" values="0 0 0 0 0 0 0 0 0 0 0 0 0 0 0 0 0 0 0.25 0"/>
<feBlend mode="normal" in2="BackgroundImageFix" result="effect1_dropShadow_2_67"/>
<feColorMatrix in="SourceAlpha" type="matrix" values="0 0 0 0 0 0 0 0 0 0 0 0 0 0 0 0 0 0 127 0" result="hardAlpha"/>
<feOffset dy="4"/>
<feGaussianBlur stdDeviation="2"/>
<feComposite in2="hardAlpha" operator="out"/>
<feColorMatrix type="matrix" values="0 0 0 0 0 0 0 0 0 0 0 0 0 0 0 0 0 0 0.25 0"/>
<feBlend mode="normal" in2="effect1_dropShadow_2_67" result="effect2_dropShadow_2_67"/>
<feBlend mode="normal" in="SourceGraphic" in2="effect2_dropShadow_2_67" result="shape"/>
</filter>
</defs>
</svg>
